<svg width="24" height="24" viewBox="0 0 24 24" fill="none" xmlns="http://www.w3.org/2000/svg">
<path d="M15.375 10.1149C15.375 9.96977 15.4343 9.83056 15.5398 9.72793C15.6452 9.62529 15.7883 9.56763 15.9375 9.56763H17.0625C17.2117 9.56763 17.3548 9.62529 17.4602 9.72793C17.5657 9.83056 17.625 9.96977 17.625 10.1149V11.2095C17.625 11.3547 17.5657 11.4939 17.4602 11.5965C17.3548 11.6992 17.2117 11.7568 17.0625 11.7568H15.9375C15.7883 11.7568 15.6452 11.6992 15.5398 11.5965C15.4343 11.4939 15.375 11.3547 15.375 11.2095V10.1149Z" fill="#3B3B3B"/>
<path d="M6.9375 3C7.08668 3 7.22976 3.05766 7.33525 3.1603C7.44074 3.26294 7.5 3.40215 7.5 3.5473V4.09459H16.5V3.5473C16.5 3.40215 16.5593 3.26294 16.6648 3.1603C16.7702 3.05766 16.9133 3 17.0625 3C17.2117 3 17.3548 3.05766 17.4602 3.1603C17.5657 3.26294 17.625 3.40215 17.625 3.5473V4.09459H18.75C19.3467 4.09459 19.919 4.32524 20.341 4.73579C20.7629 5.14635 21 5.70317 21 6.28378V18.3243C21 18.9049 20.7629 19.4618 20.341 19.8723C19.919 20.2829 19.3467 20.5135 18.75 20.5135H5.25C4.65326 20.5135 4.08097 20.2829 3.65901 19.8723C3.23705 19.4618 3 18.9049 3 18.3243V6.28378C3 5.70317 3.23705 5.14635 3.65901 4.73579C4.08097 4.32524 4.65326 4.09459 5.25 4.09459H6.375V3.5473C6.375 3.40215 6.43426 3.26294 6.53975 3.1603C6.64524 3.05766 6.78832 3 6.9375 3V3ZM4.125 7.37838V18.3243C4.125 18.6146 4.24353 18.893 4.4545 19.0983C4.66548 19.3036 4.95163 19.4189 5.25 19.4189H18.75C19.0484 19.4189 19.3345 19.3036 19.5455 19.0983C19.7565 18.893 19.875 18.6146 19.875 18.3243V7.37838H4.125Z" fill="#3B3B3B"/>
</svg>
