<svg width="14" height="14" viewBox="0 0 14 14" fill="none" xmlns="http://www.w3.org/2000/svg">
<ellipse cx="7" cy="7" rx="7" ry="7" transform="rotate(90 7 7)" fill="#FFCAAB"/>
<path d="M4.08329 5.5414C4.19687 5.54117 4.30694 5.58073 4.3944 5.6532L6.99995 7.83098L9.61037 5.73098C9.66009 5.6906 9.71731 5.66045 9.77872 5.64225C9.84014 5.62405 9.90454 5.61817 9.96824 5.62495C10.0319 5.63173 10.0937 5.65102 10.1499 5.68173C10.2061 5.71244 10.2557 5.75396 10.2958 5.8039C10.3362 5.85362 10.3663 5.91083 10.3845 5.97225C10.4027 6.03366 10.4086 6.09807 10.4018 6.16176C10.395 6.22546 10.3757 6.28718 10.345 6.3434C10.3143 6.39961 10.2728 6.4492 10.2229 6.48931L7.3062 8.83723C7.21922 8.90873 7.11012 8.94781 6.99752 8.94781C6.88493 8.94781 6.77582 8.90873 6.68884 8.83723L3.77218 6.40667C3.72295 6.36586 3.68227 6.31575 3.65244 6.25919C3.62262 6.20263 3.60424 6.14075 3.59837 6.07708C3.5925 6.01341 3.59925 5.94921 3.61823 5.88815C3.63721 5.82709 3.66805 5.77038 3.70898 5.72126C3.75422 5.66549 3.81124 5.62044 3.87596 5.58934C3.94068 5.55825 4.01149 5.54187 4.08329 5.5414Z" fill="black"/>
</svg>
