<svg width="14" height="14" viewBox="0 0 14 14" fill="none" xmlns="http://www.w3.org/2000/svg">
<ellipse cx="7" cy="7" rx="7" ry="7" fill="black" fill-opacity="0.7"/>
<path d="M5.54146 9.91671C5.54123 9.80313 5.58079 9.69306 5.65326 9.6056L7.83104 7.00005L5.73104 4.38963C5.69066 4.33991 5.66051 4.28269 5.64231 4.22128C5.62411 4.15986 5.61824 4.09546 5.62501 4.03176C5.63179 3.96807 5.65109 3.90634 5.68179 3.85013C5.7125 3.79392 5.75402 3.74433 5.80396 3.70421C5.85368 3.66383 5.91089 3.63368 5.97231 3.61548C6.03372 3.59729 6.09813 3.59141 6.16182 3.59819C6.22552 3.60496 6.28725 3.62426 6.34346 3.65497C6.39967 3.68568 6.44926 3.72719 6.48937 3.77713L8.83729 6.6938C8.90879 6.78078 8.94788 6.88988 8.94788 7.00248C8.94788 7.11507 8.90879 7.22418 8.83729 7.31116L6.40673 10.2278C6.36593 10.277 6.31581 10.3177 6.25925 10.3476C6.20269 10.3774 6.14081 10.3958 6.07714 10.4016C6.01347 10.4075 5.94927 10.4007 5.88821 10.3818C5.82715 10.3628 5.77044 10.3319 5.72132 10.291C5.66555 10.2458 5.6205 10.1888 5.5894 10.124C5.55831 10.0593 5.54193 9.98851 5.54146 9.91671Z" fill="white"/>
</svg>
