<svg width="24" height="24" viewBox="0 0 24 24" fill="none" xmlns="http://www.w3.org/2000/svg">
<path d="M5.87769 7.95924H18.1226C18.7721 7.95924 19.395 8.21725 19.8543 8.67653C20.3136 9.1358 20.5716 9.75871 20.5716 10.4082V14.0817C20.5716 14.7312 20.3136 15.3541 19.8543 15.8134C19.395 16.2726 18.7721 16.5307 18.1226 16.5307H5.87769C5.22818 16.5307 4.60527 16.2726 4.146 15.8134C3.68673 15.3541 3.42871 14.7312 3.42871 14.0817V10.4082C3.42871 9.75871 3.68673 9.1358 4.146 8.67653C4.60527 8.21725 5.22818 7.95924 5.87769 7.95924V7.95924ZM5.87769 9.18373C5.55294 9.18373 5.24148 9.31273 5.01185 9.54237C4.78221 9.77201 4.6532 10.0835 4.6532 10.4082V14.0817C4.6532 14.4064 4.78221 14.7179 5.01185 14.9475C5.24148 15.1772 5.55294 15.3062 5.87769 15.3062H18.1226C18.4473 15.3062 18.7588 15.1772 18.9884 14.9475C19.2181 14.7179 19.3471 14.4064 19.3471 14.0817V10.4082C19.3471 10.0835 19.2181 9.77201 18.9884 9.54237C18.7588 9.31273 18.4473 9.18373 18.1226 9.18373H5.87769ZM3.42871 4.89801C3.42871 4.73563 3.49322 4.57991 3.60803 4.46509C3.72285 4.35027 3.87858 4.28577 4.04096 4.28577H19.9593C20.1217 4.28577 20.2774 4.35027 20.3922 4.46509C20.5071 4.57991 20.5716 4.73563 20.5716 4.89801C20.5716 5.06039 20.5071 5.21612 20.3922 5.33093C20.2774 5.44575 20.1217 5.51026 19.9593 5.51026H4.04096C3.87858 5.51026 3.72285 5.44575 3.60803 5.33093C3.49322 5.21612 3.42871 5.06039 3.42871 4.89801V4.89801ZM3.42871 19.5919C3.42871 19.4295 3.49322 19.2738 3.60803 19.159C3.72285 19.0441 3.87858 18.9796 4.04096 18.9796H19.9593C20.1217 18.9796 20.2774 19.0441 20.3922 19.159C20.5071 19.2738 20.5716 19.4295 20.5716 19.5919C20.5716 19.7543 20.5071 19.91 20.3922 20.0248C20.2774 20.1396 20.1217 20.2041 19.9593 20.2041H4.04096C3.87858 20.2041 3.72285 20.1396 3.60803 20.0248C3.49322 19.91 3.42871 19.7543 3.42871 19.5919V19.5919Z" fill="#fc9642"/>
</svg>
