<svg width="current" height="current" viewBox="0 0 24 24" fill="none" xmlns="http://www.w3.org/2000/svg">
<path d="M6.375 2C6.54076 2 6.69973 2.06585 6.81694 2.18306C6.93415 2.30027 7 2.45924 7 2.625V3.25H17V2.625C17 2.45924 17.0658 2.30027 17.1831 2.18306C17.3003 2.06585 17.4592 2 17.625 2C17.7908 2 17.9497 2.06585 18.0669 2.18306C18.1842 2.30027 18.25 2.45924 18.25 2.625V3.25H19.5C20.163 3.25 20.7989 3.51339 21.2678 3.98223C21.7366 4.45107 22 5.08696 22 5.75V19.5C22 20.163 21.7366 20.7989 21.2678 21.2678C20.7989 21.7366 20.163 22 19.5 22H4.5C3.83696 22 3.20107 21.7366 2.73223 21.2678C2.26339 20.7989 2 20.163 2 19.5V8.25H22V7H2V5.75C2 5.08696 2.26339 4.45107 2.73223 3.98223C3.20107 3.51339 3.83696 3.25 4.5 3.25H5.75V2.625C5.75 2.45924 5.81585 2.30027 5.93306 2.18306C6.05027 2.06585 6.20924 2 6.375 2V2Z" fill="current"/>
</svg>
