<svg width="current" height="current" viewBox="0 0 24 24" fill="none" xmlns="http://www.w3.org/2000/svg">
<path d="M21.6871 6.00757L11.9649 1.41532C11.8711 1.37154 11.7686 1.34943 11.6651 1.35063C11.5615 1.35184 11.4596 1.37633 11.3668 1.42228C11.274 1.46824 11.1928 1.53449 11.1291 1.61611C11.0654 1.69774 11.0209 1.79265 10.9989 1.89382C10.9966 1.90132 10.2189 5.51632 9.06388 9.12007C8.67013 10.3553 8.22913 11.5763 7.76863 12.6488L9.01738 13.2383C10.5174 9.75682 11.7054 4.95082 12.1524 3.02857L20.6026 7.01482C20.3431 8.14957 19.6779 10.9321 18.7876 13.7101C18.2124 15.5101 17.5389 17.3078 16.8489 18.6091C16.1814 19.9516 15.3804 20.6116 15.2011 20.5231C14.1361 20.5456 13.3876 19.5766 12.8836 18.3346C12.6716 17.7881 12.5068 17.2246 12.3909 16.6501C12.2949 16.1866 12.2656 15.8956 12.2634 15.8956C12.2514 15.7783 12.2092 15.6662 12.1408 15.5702C12.0724 15.4742 11.9803 15.3977 11.8734 15.3481L2.15338 10.7581C2.04264 10.7058 1.92003 10.6839 1.79803 10.6944C1.67604 10.7049 1.55902 10.7476 1.45888 10.8181C1.35932 10.8892 1.28046 10.9855 1.23038 11.0971C1.1803 11.2087 1.1608 11.3317 1.17388 11.4533C1.17988 11.4878 1.32013 12.8408 1.88413 14.2561C2.27563 15.2461 2.93938 16.3696 4.01863 16.9373L13.7356 21.5348L13.7401 21.5258C14.1616 21.7471 14.6401 21.8911 15.2004 21.8978C16.5481 21.8101 17.2831 20.6468 18.0639 19.2541C20.3139 14.9866 22.0539 6.80407 22.0674 6.77407C22.1007 6.62258 22.0814 6.46427 22.0127 6.32521C21.944 6.18616 21.8299 6.07465 21.6894 6.00907L21.6871 6.00757Z" fill="current"/>
</svg>
