<svg width="24" height="24" viewBox="0 0 24 24" fill="none" xmlns="http://www.w3.org/2000/svg">
<path d="M19.9593 10.8C20.1217 10.8 20.2774 10.7368 20.3922 10.6243C20.5071 10.5117 20.5716 10.3591 20.5716 10.2V7.2C20.5716 6.88174 20.4426 6.57652 20.2129 6.35147C19.9833 6.12643 19.6718 6 19.3471 6H4.6532C4.32845 6 4.01699 6.12643 3.78736 6.35147C3.55772 6.57652 3.42871 6.88174 3.42871 7.2V10.2C3.42871 10.3591 3.49322 10.5117 3.60803 10.6243C3.72285 10.7368 3.87858 10.8 4.04096 10.8C4.36571 10.8 4.67716 10.9264 4.9068 11.1515C5.13644 11.3765 5.26545 11.6817 5.26545 12C5.26545 12.3183 5.13644 12.6235 4.9068 12.8485C4.67716 13.0736 4.36571 13.2 4.04096 13.2C3.87858 13.2 3.72285 13.2632 3.60803 13.3757C3.49322 13.4883 3.42871 13.6409 3.42871 13.8V16.8C3.42871 17.1183 3.55772 17.4235 3.78736 17.6485C4.01699 17.8736 4.32845 18 4.6532 18H19.3471C19.6718 18 19.9833 17.8736 20.2129 17.6485C20.4426 17.4235 20.5716 17.1183 20.5716 16.8V13.8C20.5716 13.6409 20.5071 13.4883 20.3922 13.3757C20.2774 13.2632 20.1217 13.2 19.9593 13.2C19.6346 13.2 19.3231 13.0736 19.0935 12.8485C18.8638 12.6235 18.7348 12.3183 18.7348 12C18.7348 11.6817 18.8638 11.3765 19.0935 11.1515C19.3231 10.9264 19.6346 10.8 19.9593 10.8V10.8ZM19.3471 14.322V16.8H15.0614V15H13.8369V16.8H4.6532V14.322C5.17728 14.1878 5.64116 13.887 5.97224 13.4669C6.30331 13.0467 6.4829 12.5309 6.4829 12C6.4829 11.4691 6.30331 10.9533 5.97224 10.5331C5.64116 10.113 5.17728 9.81224 4.6532 9.678V7.2H13.8369V9H15.0614V7.2H19.3471V9.678C18.823 9.81224 18.3591 10.113 18.028 10.5331C17.697 10.9533 17.5174 11.4691 17.5174 12C17.5174 12.5309 17.697 13.0467 18.028 13.4669C18.3591 13.887 18.823 14.1878 19.3471 14.322V14.322Z" fill="#fc9642"/>
</svg>
