<svg width="24" height="24" viewBox="0 0 24 24" fill="none" xmlns="http://www.w3.org/2000/svg">
<path d="M12.247 13.7798C12.2195 13.8144 12.1827 13.8426 12.1397 13.8622C12.0967 13.8817 12.0489 13.8919 12.0004 13.8919C11.9519 13.8919 11.9041 13.8817 11.8611 13.8622C11.8181 13.8426 11.7813 13.8144 11.7538 13.7798L9.05358 10.4071C9.02232 10.3682 9.00399 10.3226 9.00058 10.2753C8.99717 10.228 9.00881 10.1809 9.03423 10.1389C9.05965 10.0969 9.09788 10.0618 9.14477 10.0373C9.19166 10.0128 9.24542 9.99993 9.3002 10H14.7006C14.7553 10.0002 14.8088 10.0133 14.8555 10.0378C14.9022 10.0624 14.9403 10.0975 14.9657 10.1393C14.991 10.1812 15.0027 10.2282 14.9995 10.2754C14.9962 10.3226 14.9782 10.3681 14.9472 10.4071L12.247 13.7798Z" fill="#3B3B3B"/>
</svg>
