<svg width="24" height="24" viewBox="0 0 24 24" fill="none" xmlns="http://www.w3.org/2000/svg">
<path d="M9.84863 15.5064H19.1215L17.305 17.3227L18.2977 18.3116L21.8182 14.8051L18.2977 11.2986L17.305 12.2874L19.1215 14.1038H9.84863V15.5064Z" fill="#3B3B3B"/>
<path d="M16.2635 10.5974V7.79217C16.264 7.69987 16.2463 7.60838 16.2112 7.52293C16.1762 7.43749 16.1246 7.35977 16.0593 7.29424L11.1307 2.38515C11.0649 2.32015 10.9868 2.26873 10.9011 2.23383C10.8153 2.19893 10.7234 2.18124 10.6308 2.18177H3.58983C3.21635 2.18177 2.85817 2.32955 2.59409 2.59259C2.33 2.85562 2.18164 3.21238 2.18164 3.58437V20.4155C2.18164 20.7875 2.33 21.1443 2.59409 21.4073C2.85817 21.6704 3.21635 21.8181 3.58983 21.8181H14.8553C15.2288 21.8181 15.587 21.6704 15.851 21.4073C16.1151 21.1443 16.2635 20.7875 16.2635 20.4155V19.0129H14.8553V20.4155H3.58983V3.58437H9.22257V7.79217C9.22257 8.16416 9.37093 8.52091 9.63502 8.78395C9.8991 9.04699 10.2573 9.19476 10.6308 9.19476H14.8553V10.5974H16.2635ZM10.6308 7.79217V3.8719L14.5666 7.79217H10.6308Z" fill="#3B3B3B"/>
</svg>
