<svg width="44" height="44" viewBox="0 0 44 44" fill="none" xmlns="http://www.w3.org/2000/svg">
<circle cx="22" cy="22" r="21" fill="#fc9642"/>
<path d="M29.4003 17.3399L26.6603 14.5999C26.3027 14.264 25.8341 14.0712 25.3436 14.0583C24.8532 14.0454 24.3751 14.2132 24.0003 14.5299L15.0003 23.5299C14.6771 23.8558 14.4758 24.2831 14.4303 24.7399L14.0003 28.9099C13.9868 29.0563 14.0058 29.204 14.056 29.3422C14.1061 29.4805 14.1861 29.606 14.2903 29.7099C14.3837 29.8025 14.4946 29.8759 14.6164 29.9256C14.7382 29.9754 14.8687 30.0006 15.0003 29.9999H15.0903L19.2603 29.6199C19.7171 29.5744 20.1443 29.3731 20.4703 29.0499L29.4703 20.0499C29.8196 19.6808 30.0084 19.1884 29.9953 18.6804C29.9822 18.1724 29.7682 17.6904 29.4003 17.3399V17.3399ZM19.0803 27.6199L16.0803 27.8999L16.3503 24.8999L22.0003 19.3199L24.7003 22.0199L19.0803 27.6199ZM26.0003 20.6799L23.3203 17.9999L25.2703 15.9999L28.0003 18.7299L26.0003 20.6799Z" fill="white"/>
</svg>
