<svg width="24" height="24" viewBox="0 0 24 24" fill="none" xmlns="http://www.w3.org/2000/svg">
<path d="M16.2666 10.5974V7.79216C16.2671 7.69987 16.2494 7.60837 16.2143 7.52293C16.1793 7.43748 16.1276 7.35977 16.0624 7.29424L11.1326 2.38515C11.0668 2.32015 10.9888 2.26873 10.903 2.23383C10.8172 2.19893 10.7253 2.18124 10.6326 2.18177H3.59014C3.21658 2.18177 2.85832 2.32955 2.59418 2.59259C2.33004 2.85562 2.18164 3.21238 2.18164 3.58437V20.4155C2.18164 20.7875 2.33004 21.1443 2.59418 21.4073C2.85832 21.6704 3.21658 21.8181 3.59014 21.8181H14.8581C15.2317 21.8181 15.5899 21.6704 15.8541 21.4073C16.1182 21.1443 16.2666 20.7875 16.2666 20.4155V19.0129H14.8581V20.4155H3.59014V3.58437H9.22413V7.79216C9.22413 8.16415 9.37252 8.52091 9.63666 8.78395C9.90081 9.04698 10.2591 9.19476 10.6326 9.19476H14.8581V10.5974H16.2666ZM10.6326 7.79216V3.8719L14.5694 7.79216H10.6326Z" fill="#3B3B3B"/>
<path d="M21.8179 13.7142L12.4844 13.7142L14.3128 11.8978L13.3135 10.909L9.77006 14.4155L13.3135 17.922L14.3128 16.9332L12.4844 15.1168L21.8179 15.1168L21.8179 13.7142Z" fill="#3B3B3B"/>
</svg>
