<svg width="24" height="24" viewBox="0 0 24 24" fill="none" xmlns="http://www.w3.org/2000/svg">
<path d="M7.63672 21.8181L7.63672 13.0908" stroke="#3B3B3B" stroke-width="1.5" stroke-linecap="round" stroke-linejoin="round"/>
<path d="M7.63672 6.5454L7.63672 2.18176" stroke="#3B3B3B" stroke-width="1.5" stroke-linecap="round" stroke-linejoin="round"/>
<path d="M7.6365 13.0909C9.44397 13.0909 10.9092 11.6256 10.9092 9.81814C10.9092 8.01066 9.44397 6.54541 7.6365 6.54541C5.82902 6.54541 4.36377 8.01066 4.36377 9.81814C4.36377 11.6256 5.82902 13.0909 7.6365 13.0909Z" stroke="#3B3B3B" stroke-width="1.5" stroke-linecap="round" stroke-linejoin="round"/>
<path d="M16.3638 2.18178L16.3638 10.9091" stroke="#3B3B3B" stroke-width="1.5" stroke-linecap="round" stroke-linejoin="round"/>
<path d="M16.3638 17.4545L16.3638 21.8181" stroke="#3B3B3B" stroke-width="1.5" stroke-linecap="round" stroke-linejoin="round"/>
<path d="M16.364 10.909C14.5565 10.909 13.0913 12.3743 13.0913 14.1817C13.0913 15.9892 14.5565 17.4545 16.364 17.4545C18.1715 17.4545 19.6367 15.9892 19.6367 14.1817C19.6367 12.3743 18.1715 10.909 16.364 10.909Z" stroke="#3B3B3B" stroke-width="1.5" stroke-linecap="round" stroke-linejoin="round"/>
</svg>
