<svg width="24" height="24" viewBox="0 0 24 24" fill="none" xmlns="http://www.w3.org/2000/svg">
<path d="M21.6029 9.82246H16.0081C15.912 9.82246 15.8333 9.90087 15.8333 9.99671V11.0422C15.8333 11.138 15.912 11.2164 16.0081 11.2164H21.6029C21.6991 11.2164 21.7777 11.138 21.7777 11.0422V9.99671C21.7777 9.90087 21.6991 9.82246 21.6029 9.82246ZM18.6744 12.7847H16.0081C15.912 12.7847 15.8333 12.8631 15.8333 12.9589V14.0044C15.8333 14.1003 15.912 14.1787 16.0081 14.1787H18.6744C18.7705 14.1787 18.8492 14.1003 18.8492 14.0044V12.9589C18.8492 12.8631 18.7705 12.7847 18.6744 12.7847ZM11.3815 7.87305H10.4352C10.2997 7.87305 10.1904 7.98195 10.1904 8.117V13.5187C10.1904 13.5971 10.2276 13.669 10.291 13.7147L13.5451 16.0802C13.6544 16.1586 13.8074 16.1368 13.886 16.0279L14.4477 15.2634V15.2612C14.5264 15.1523 14.5023 14.9998 14.3931 14.9214L11.6241 12.9263V8.117C11.6263 7.98195 11.5148 7.87305 11.3815 7.87305V7.87305Z" fill="#fc9642"/>
<path d="M18.5608 15.5487H17.2996C17.1774 15.5487 17.0618 15.6123 16.9963 15.7175C16.7192 16.1582 16.3963 16.566 16.0253 16.9387C15.386 17.581 14.642 18.0853 13.815 18.4361C12.9575 18.8 12.0476 18.9842 11.1094 18.9842C10.1689 18.9842 9.25905 18.8 8.40372 18.4361C7.57675 18.0853 6.8327 17.581 6.19338 16.9387C5.55406 16.2963 5.05221 15.5487 4.70309 14.7178C4.34088 13.8584 4.1576 12.9442 4.1576 11.9993C4.1576 11.0543 4.34088 10.1423 4.70309 9.28071C5.05221 8.4498 5.55406 7.7022 6.19338 7.05983C6.8327 6.41747 7.57675 5.91322 8.40372 5.56244C9.25905 5.1985 10.1711 5.01435 11.1094 5.01435C12.0498 5.01435 12.9597 5.1985 13.815 5.56244C14.642 5.91322 15.386 6.41747 16.0253 7.05983C16.3963 7.43254 16.7192 7.84032 16.9963 8.28099C17.0618 8.38622 17.1774 8.4498 17.2996 8.4498H18.5608C18.7114 8.4498 18.8074 8.29195 18.7397 8.15821C17.3171 5.3147 14.4325 3.46653 11.2119 3.42926C6.49667 3.37006 2.58003 7.24838 2.5713 11.9817C2.56258 16.7238 6.38757 20.5714 11.1072 20.5714C14.3692 20.5714 17.3018 18.7167 18.7397 15.8403C18.8074 15.7066 18.7092 15.5487 18.5608 15.5487V15.5487Z" fill="#fc9642"/>
</svg>
