<svg width="112" height="112" viewBox="0 0 112 112" fill="none" xmlns="http://www.w3.org/2000/svg">
<path d="M21 98C21 98 14 98 14 91C14 84 21 63 56 63C91 63 98 84 98 91C98 98 91 98 91 98H21ZM56 56C61.5695 56 66.911 53.7875 70.8492 49.8492C74.7875 45.911 77 40.5695 77 35C77 29.4305 74.7875 24.089 70.8492 20.1508C66.911 16.2125 61.5695 14 56 14C50.4305 14 45.089 16.2125 41.1508 20.1508C37.2125 24.089 35 29.4305 35 35C35 40.5695 37.2125 45.911 41.1508 49.8492C45.089 53.7875 50.4305 56 56 56V56Z" fill="#CDCDCD"/>
</svg>
