<svg width="current" height="current" viewBox="0 0 24 24" fill="none" xmlns="http://www.w3.org/2000/svg">
<path d="M12 7.12502C12.8158 7.12502 13.6134 7.36694 14.2917 7.8202C14.9701 8.27347 15.4988 8.9177 15.811 9.67145C16.1232 10.4252 16.2049 11.2546 16.0457 12.0548C15.8866 12.8549 15.4937 13.5899 14.9168 14.1668C14.3399 14.7437 13.6049 15.1366 12.8047 15.2958C12.0046 15.4549 11.1752 15.3732 10.4214 15.061C9.66769 14.7488 9.02345 14.2201 8.57019 13.5417C8.11693 12.8634 7.875 12.0659 7.875 11.25C7.875 10.156 8.3096 9.10679 9.08318 8.3332C9.85677 7.55961 10.906 7.12502 12 7.12502V7.12502ZM16.5 6.00002H18V7.50002C18 7.69893 18.079 7.88969 18.2197 8.03035C18.3603 8.171 18.5511 8.25002 18.75 8.25002C18.9489 8.25002 19.1397 8.171 19.2803 8.03035C19.421 7.88969 19.5 7.69893 19.5 7.50002V6.00002H21C21.1989 6.00002 21.3897 5.921 21.5303 5.78035C21.671 5.63969 21.75 5.44893 21.75 5.25002C21.75 5.0511 21.671 4.86034 21.5303 4.71969C21.3897 4.57903 21.1989 4.50002 21 4.50002H19.5V3.00002C19.5 2.8011 19.421 2.61034 19.2803 2.46969C19.1397 2.32903 18.9489 2.25002 18.75 2.25002C18.5511 2.25002 18.3603 2.32903 18.2197 2.46969C18.079 2.61034 18 2.8011 18 3.00002V4.50002H16.5C16.3011 4.50002 16.1103 4.57903 15.9697 4.71969C15.829 4.86034 15.75 5.0511 15.75 5.25002C15.75 5.44893 15.829 5.63969 15.9697 5.78035C16.1103 5.921 16.3011 6.00002 16.5 6.00002ZM20.7713 9.83964C20.674 9.85506 20.5807 9.88949 20.4967 9.94096C20.4127 9.99243 20.3397 10.0599 20.2818 10.1396C20.224 10.2193 20.1823 10.3096 20.1594 10.4054C20.1364 10.5012 20.1325 10.6006 20.1479 10.6978C20.2159 11.1286 20.2501 11.564 20.25 12C20.2516 14.0196 19.5093 15.969 18.1648 17.476C17.5628 16.6037 16.782 15.8695 15.8745 15.3221C14.8309 16.3189 13.4432 16.8751 12 16.8751C10.5569 16.8751 9.16923 16.3189 8.12559 15.3221C7.21801 15.8695 6.43727 16.6037 5.83519 17.476C4.77816 16.2879 4.08726 14.8195 3.84573 13.2477C3.60419 11.6759 3.82233 10.0678 4.47387 8.61715C5.1254 7.16651 6.18253 5.93523 7.51786 5.07167C8.8532 4.20811 10.4098 3.74912 12 3.75002C12.4361 3.74998 12.8715 3.78412 13.3022 3.85211C13.4987 3.88325 13.6994 3.83507 13.8604 3.71817C14.0213 3.60128 14.1292 3.42523 14.1604 3.22877C14.1915 3.0323 14.1433 2.83152 14.0264 2.67057C13.9095 2.50963 13.7335 2.40172 13.537 2.37058C12.1444 2.14959 10.7203 2.23306 9.36304 2.61525C8.00573 2.99744 6.74738 3.66927 5.67464 4.58447C4.6019 5.49966 3.74026 6.63649 3.14905 7.91666C2.55785 9.19683 2.25112 10.5899 2.25 12C2.24948 13.3529 2.53119 14.691 3.07713 15.9288C3.62307 17.1666 4.42124 18.2769 5.42063 19.1888C5.45775 19.2305 5.49945 19.2679 5.54494 19.3003C7.32489 20.8786 9.62136 21.75 12.0002 21.75C14.3791 21.7499 16.6756 20.8784 18.4554 19.3C18.5006 19.2679 18.542 19.2307 18.5789 19.1893C19.5784 18.2775 20.3767 17.1671 20.9228 15.9292C21.4688 14.6912 21.7505 13.353 21.75 12C21.75 11.4853 21.7097 10.9714 21.6294 10.463C21.614 10.3657 21.5796 10.2724 21.5282 10.1884C21.4767 10.1044 21.4092 10.0314 21.3295 9.97351C21.2498 9.91562 21.1595 9.87401 21.0637 9.85104C20.9679 9.82807 20.8685 9.82419 20.7713 9.83964V9.83964Z" fill="current"/>
</svg>
