<svg width="24" height="24" viewBox="0 0 24 24" fill="none" xmlns="http://www.w3.org/2000/svg">
<path fill-rule="evenodd" clip-rule="evenodd" d="M20.1816 6.56987L20.1816 2.18185L21.8184 2.18185L21.8184 7.91033L21 8.72869L15.2715 8.72869L15.2715 7.09198L18.5449 7.09198C17.4443 5.62503 15.8828 4.57031 14.1109 4.09703C12.3391 3.62376 10.4596 3.75936 8.77408 4.48209C7.08853 5.20482 5.6946 6.47277 4.81593 8.08254C3.93725 9.6923 3.62476 11.5505 3.92859 13.3592C4.23242 15.1678 5.13496 16.8219 6.49141 18.0562C7.84786 19.2905 9.57959 20.0334 11.4088 20.1656C13.238 20.2979 15.0586 19.8119 16.5785 18.7857C18.0984 17.7594 19.2296 16.2524 19.7905 14.5063L21.3519 15.0006C20.6725 17.1195 19.2935 18.9448 17.441 20.1776C15.5885 21.4103 13.3722 21.9774 11.1553 21.7858C8.93837 21.5943 6.85221 20.6555 5.23859 19.1233C3.62497 17.5911 2.57955 15.5563 2.27361 13.3522C1.96767 11.1482 2.41934 8.90553 3.55463 6.99174C4.68992 5.07795 6.44152 3.60647 8.52246 2.81834C10.6034 2.03022 12.8903 1.9722 15.0086 2.65377C17.1268 3.33535 18.9508 4.71611 20.1816 6.56987V6.56987Z" fill="#3B3B3B"/>
</svg>
