<svg width="24" height="24" viewBox="0 0 24 24" fill="none" xmlns="http://www.w3.org/2000/svg">
<path d="M19.4574 13.6484C19.911 13.6929 20.3479 13.8127 20.7398 14H20.7743C21.1815 12.4665 21.0357 10.8724 20.3537 9.40215C20.3282 9.32898 20.2839 9.26083 20.2236 9.202C20.1634 9.14316 20.0884 9.09492 20.0036 9.06032C19.9187 9.02572 19.8258 9.00552 19.7307 9.00098C19.6355 8.99644 19.5402 9.00768 19.4508 9.03396C19.3614 9.06025 19.2798 9.10103 19.2111 9.15372C19.1425 9.20641 19.0883 9.26986 19.052 9.34008C19.0157 9.4103 18.998 9.48575 19.0002 9.56167C19.0023 9.63759 19.0242 9.71234 19.0644 9.78118C19.6342 11.0178 19.7701 12.3549 19.4574 13.6484V13.6484Z" fill="current"/>
<path d="M17.1213 18C16.0937 18.9041 14.8596 19.5088 13.5417 19.7539C13.3853 19.7679 13.2406 19.8469 13.1394 19.9734C13.0382 20.1 12.9888 20.2637 13.0021 20.4287C13.0154 20.5936 13.0903 20.7463 13.2103 20.853C13.3303 20.9597 13.4856 21.0118 13.642 20.9978H13.7481C15.3189 20.7055 16.7869 19.9754 18 18.8832V18.8396C17.6531 18.6299 17.3534 18.3434 17.1213 18V18Z" fill="current"/>
<path d="M10.449 19.7273C9.53715 19.5471 8.66205 19.2011 7.86278 18.7049C7.521 18.4928 7.19275 18.2573 6.88015 18C6.6503 18.3557 6.35003 18.6546 6 18.8764C6.39146 19.2243 6.80875 19.5386 7.24788 19.8162C8.16863 20.3876 9.17611 20.7872 10.2259 20.9974H10.3405C10.5003 21.0126 10.6594 20.9602 10.7826 20.8518C10.9059 20.7435 10.9832 20.588 10.9976 20.4195C11.012 20.2511 10.9622 20.0836 10.8594 19.9537C10.7565 19.8239 10.6089 19.7425 10.449 19.7273V19.7273Z" fill="current"/>
<path d="M4.15994 13.6753C4.2998 13.6753 4.43966 13.6588 4.57951 13.6258C4.24617 12.3283 4.37689 10.9834 4.95713 9.74085C5.02111 9.60366 5.01322 9.45209 4.93519 9.31948C4.85716 9.18687 4.71539 9.08409 4.54105 9.03374C4.36672 8.98339 4.17411 8.9896 4.00559 9.051C3.83708 9.1124 3.70646 9.22397 3.64247 9.36115C2.94983 10.846 2.81391 12.4561 3.25088 14C3.53149 13.8565 3.83794 13.7471 4.15994 13.6753Z" fill="current"/>
<path d="M20.1091 14.4413C19.9009 14.3094 19.6685 14.2199 19.4253 14.1781C19.1822 14.1362 18.9331 14.1428 18.6925 14.1975C18.3881 14.2783 18.108 14.4318 17.8764 14.6445L15.6204 13.3441C15.9757 12.47 16.0085 11.4987 15.7128 10.6028C15.4172 9.70685 14.8124 8.94422 14.0056 8.4503L13.9415 8.40967C13.5057 8.16476 13.0268 8.00515 12.5308 7.93944V5.73344C12.995 5.59449 13.3876 5.28258 13.6267 4.86265C13.8843 4.42851 13.9595 3.91077 13.8362 3.42172C13.7129 2.93268 13.4009 2.51176 12.968 2.25028C12.7571 2.1274 12.5237 2.04768 12.2814 2.01578C12.0392 1.98388 11.793 2.00045 11.5573 2.06451C11.3142 2.12622 11.086 2.23551 10.8858 2.38601C10.6856 2.53652 10.5175 2.72522 10.3914 2.94111C10.1411 3.37315 10.0699 3.88536 10.193 4.36885C10.316 4.85235 10.6235 5.269 11.0501 5.53026C11.1839 5.61729 11.3291 5.68566 11.4815 5.73344V7.93944C10.8943 8.01926 10.3333 8.2325 9.84209 8.56267C9.35084 8.89284 8.94241 9.3311 8.64839 9.84357C8.34417 10.3673 8.16398 10.9533 8.12155 11.557C8.07912 12.1606 8.17557 12.7658 8.40356 13.3267L6.07178 14.6561C5.99 14.5779 5.9023 14.5061 5.80946 14.4413C5.59599 14.3204 5.36065 14.2426 5.11693 14.2125C4.87321 14.1823 4.62592 14.2004 4.38923 14.2657C4.15255 14.3309 3.93113 14.4421 3.73769 14.5928C3.54425 14.7435 3.38259 14.9307 3.26199 15.1438C3.01017 15.5737 2.93628 16.0844 3.05597 16.5677C3.17566 17.051 3.47953 17.4689 3.90323 17.7329C4.19364 17.907 4.5261 17.9993 4.86509 18C5.01858 18.001 5.17153 17.9815 5.31978 17.9419C5.80444 17.8174 6.21993 17.507 6.47551 17.0784C6.73109 16.6499 6.806 16.138 6.68387 15.6546V15.5559L8.94569 14.2556C9.24885 14.6508 9.62229 14.9873 10.0475 15.2483C10.8624 15.76 11.8428 15.9428 12.7884 15.7594C13.7341 15.576 14.5739 15.0402 15.1366 14.2614L17.3692 15.5443C17.264 15.9403 17.2893 16.3594 17.4415 16.7399C17.5937 17.1203 17.8647 17.442 18.2145 17.6574C18.6382 17.905 19.1432 17.975 19.6187 17.852C20.0942 17.729 20.5012 17.4231 20.7503 17.0015C20.9932 16.5742 21.0621 16.0703 20.9428 15.5939C20.8235 15.1175 20.525 14.7049 20.1091 14.4413Z" fill="current"/>
<path d="M5.99433 6.83272C6.79919 6.01183 7.83388 5.38233 9 5.00406C8.88711 4.67884 8.85458 4.33677 8.90449 4C7.44363 4.42169 6.14269 5.17776 5.14038 6.1876C5.04129 6.28537 4.99125 6.41312 5.00126 6.54274C5.01127 6.67237 5.08051 6.79325 5.19375 6.8788C5.30699 6.96435 5.45495 7.00756 5.60509 6.99891C5.75523 6.99027 5.89524 6.93049 5.99433 6.83272V6.83272Z" fill="current"/>
<path d="M16.1678 5.98057C16.8623 6.45863 17.4837 7.06431 18.007 7.77343C18.0552 7.83803 18.114 7.89111 18.18 7.92965C18.246 7.96819 18.3181 7.99143 18.3919 7.99804C18.4658 8.00465 18.5401 7.99451 18.6105 7.96818C18.681 7.94186 18.7462 7.89988 18.8025 7.84463C18.8588 7.78938 18.9051 7.72195 18.9387 7.64619C18.9723 7.57042 18.9925 7.48781 18.9983 7.40307C19.0041 7.31832 18.9952 7.23311 18.9723 7.15228C18.9493 7.07146 18.9127 6.99661 18.8646 6.93202C18.2621 6.11194 17.5452 5.41206 16.7433 4.86083C16.2173 4.50998 15.6616 4.22155 15.0846 4C15.1413 4.44621 15.1124 4.90123 15 5.33332C15.404 5.51224 15.7946 5.72871 16.1678 5.98057V5.98057Z" fill="current"/>
</svg>
