<svg width="current" height="current" viewBox="0 0 24 24" fill="none" xmlns="http://www.w3.org/2000/svg">
<path d="M18.7178 2.65836C18.3772 2.31774 17.9729 2.04755 17.5279 1.86321C17.0829 1.67886 16.606 1.58398 16.1243 1.58398C15.6426 1.58398 15.1657 1.67886 14.7207 1.86321C14.2757 2.04755 13.8714 2.31774 13.5308 2.65836L3.5933 12.5959C3.51149 12.6781 3.44987 12.7782 3.4133 12.8884L1.5383 18.5134C1.49595 18.6408 1.48857 18.7772 1.51692 18.9084C1.54528 19.0396 1.60834 19.1608 1.69952 19.2594C1.7907 19.3579 1.90666 19.4302 2.03529 19.4686C2.16392 19.507 2.30051 19.5102 2.4308 19.4779L8.4308 17.9779C8.56298 17.9453 8.6838 17.8774 8.7803 17.7814L17.2493 9.31086L17.3783 9.43986C17.6595 9.72115 17.8175 10.1026 17.8175 10.5004C17.8175 10.8981 17.6595 11.2796 17.3783 11.5609L15.2183 13.7209C15.0777 13.8617 14.9987 14.0526 14.9989 14.2516C14.999 14.4507 15.0782 14.6415 15.2191 14.7821C15.3599 14.9227 15.5508 15.0017 15.7498 15.0015C15.9489 15.0014 16.1397 14.9222 16.2803 14.7814L18.4388 12.6214C19.0012 12.0588 19.3172 11.2958 19.3172 10.5004C19.3172 9.70486 19.0012 8.94194 18.4388 8.37936L18.3098 8.25036L18.7178 7.84386C19.4053 7.15611 19.7914 6.22351 19.7914 5.25111C19.7914 4.2787 19.4053 3.3461 18.7178 2.65836Z" fill="current"/>
<path d="M7.44949 22.5005C5.59699 22.5005 4.13749 21.6515 3.16699 20.84L5.09299 20.36C5.76199 20.7335 6.55249 21.0005 7.44799 21.0005C8.05699 21.0005 8.68399 20.7545 9.35299 20.315C10.0235 19.8755 10.67 19.2845 11.324 18.6725L11.4935 18.512C12.071 17.9705 12.6695 17.4065 13.2425 17.018C13.8545 16.601 14.6675 16.223 15.518 16.5515C16.082 16.7675 16.448 17.1665 16.7045 17.6555C16.946 18.1145 17.1125 18.6875 17.2745 19.313C17.3495 19.598 17.474 19.874 17.6195 20.06C17.6663 20.1255 17.7241 20.1824 17.7905 20.228C17.828 20.2505 17.8445 20.2505 17.849 20.2505C18.032 20.2505 18.3455 20.1275 18.794 19.8215C19.0715 19.6325 19.31 19.4435 19.547 19.253C19.694 19.136 19.8425 19.0175 20 18.9005C20.4185 18.587 20.78 18.377 21.0455 18.2435C21.1813 18.1746 21.3205 18.1125 21.4625 18.0575L21.4925 18.0455L21.503 18.0425L21.5075 18.041H21.509L21.749 18.7505L21.5105 18.0395C21.6981 17.9784 21.9023 17.9938 22.0787 18.0822C22.2551 18.1707 22.3895 18.325 22.4528 18.5119C22.5162 18.6988 22.5033 18.9031 22.4171 19.0806C22.3308 19.258 22.1781 19.3944 21.992 19.46L21.986 19.463C21.8967 19.499 21.8092 19.5391 21.7235 19.583C21.5285 19.679 21.242 19.844 20.8985 20.102C20.81 20.1665 20.696 20.258 20.564 20.363C20.2925 20.5775 19.9505 20.849 19.637 21.062C19.172 21.38 18.5255 21.752 17.849 21.752C17.195 21.752 16.7225 21.3545 16.43 20.9765C16.1451 20.5915 15.9386 20.1542 15.8225 19.6895C15.6575 19.055 15.5285 18.6395 15.3785 18.3545C15.2435 18.1025 15.1235 18.0065 14.9795 17.9495C14.8565 17.9045 14.612 17.9 14.087 18.2585C13.6175 18.5765 13.1045 19.058 12.5 19.6265L12.35 19.766C11.7035 20.3735 10.97 21.0485 10.1765 21.569C9.38149 22.091 8.46649 22.5005 7.44949 22.5005Z" fill="current"/>
</svg>
