<svg width="current" height="current" viewBox="0 0 24 24" fill="none" xmlns="http://www.w3.org/2000/svg">
<path d="M6.75 3C5.75544 3 4.80161 3.39509 4.09835 4.09835C3.39509 4.80161 3 5.75544 3 6.75V17.247C3 18.012 3.228 18.7215 3.621 19.3155L10.1955 12.741C10.6737 12.2629 11.3223 11.9942 11.9985 11.9942C12.6747 11.9942 13.3233 12.2629 13.8015 12.741L14.3115 13.251L17.4435 10.1205C17.9006 9.66259 18.4661 9.32772 19.0874 9.14703C19.7087 8.96633 20.3656 8.94568 20.997 9.087V6.75C20.997 5.75544 20.6019 4.80161 19.8986 4.09835C19.1954 3.39509 18.2416 3 17.247 3H6.75ZM17.247 8.2515C17.2534 8.45277 17.2192 8.65327 17.1466 8.84109C17.0739 9.02891 16.9643 9.20021 16.8242 9.34484C16.6841 9.48946 16.5163 9.60445 16.3309 9.68298C16.1454 9.76151 15.9461 9.80198 15.7447 9.80198C15.5434 9.80198 15.3441 9.76151 15.1586 9.68298C14.9732 9.60445 14.8054 9.48946 14.6653 9.34484C14.5252 9.20021 14.4156 9.02891 14.3429 8.84109C14.2703 8.65327 14.2361 8.45277 14.2425 8.2515C14.2548 7.86129 14.4185 7.4912 14.6989 7.21954C14.9793 6.94788 15.3543 6.79598 15.7447 6.79598C16.1351 6.79598 16.5102 6.94788 16.7906 7.21954C17.071 7.4912 17.2347 7.86129 17.247 8.2515V8.2515ZM19.893 10.5105C19.3673 10.5699 18.8775 10.8064 18.504 11.181L12.075 17.613C11.5414 18.1468 11.1629 18.8157 10.98 19.548L10.524 21.363C10.4856 21.5164 10.4875 21.6771 10.5297 21.8294C10.5718 21.9818 10.6528 22.1207 10.7645 22.2325C10.8763 22.3442 11.0152 22.4252 11.1676 22.4673C11.3199 22.5095 11.4806 22.5114 11.634 22.473L13.449 22.0185C14.1813 21.8356 14.8502 21.4571 15.384 20.9235L21.816 14.4915C22.1599 14.1483 22.3884 13.7066 22.4699 13.2277C22.5514 12.7487 22.4817 12.2563 22.2707 11.8187C22.0597 11.3811 21.7176 11.0201 21.2921 10.7856C20.8666 10.5512 20.3786 10.4551 19.896 10.5105H19.893ZM13.2525 14.3115L11.013 16.551C10.2866 17.2771 9.77118 18.1871 9.522 19.1835L9.069 20.997H6.75C5.985 20.997 5.274 20.7675 4.6815 20.376L11.256 13.8C11.3535 13.7025 11.4693 13.6251 11.5967 13.5724C11.7241 13.5196 11.8606 13.4924 11.9985 13.4924C12.1364 13.4924 12.2729 13.5196 12.4003 13.5724C12.5277 13.6251 12.6435 13.7025 12.741 13.8L13.251 14.31L13.2525 14.3115Z" fill="current"/>
</svg>
